<?xml version="1.0" encoding="UTF-8"?>
<svg version="1.1" xmlns="http://www.w3.org/2000/svg" width="603" height="480">
<path d="M0 0 C198.99 0 397.98 0 603 0 C603 158.4 603 316.8 603 480 C404.01 480 205.02 480 0 480 C0 321.6 0 163.2 0 0 Z " fill="#24053D" transform="translate(0,0)"/>
<path d="M0 0 C1.25167969 0.00902344 2.50335938 0.01804687 3.79296875 0.02734375 C6.8621801 0.05077284 9.93098756 0.08357853 13 0.125 C12.43702387 7.36862614 10.80757599 13.87692519 8.6875 20.8125 C8.04611941 22.94248096 7.40549034 25.07268836 6.765625 27.203125 C6.45818359 28.22212891 6.15074219 29.24113281 5.83398438 30.29101562 C5.1307369 32.68073948 4.47380793 35.07069698 3.859375 37.484375 C1.99230724 44.73112952 -0.35591681 50.23831077 -5 56.125 C-5.70125 57.07375 -6.4025 58.0225 -7.125 59 C-8.95240792 61.07106231 -10.66845348 62.64835387 -13 64.125 C-13.66 64.125 -14.32 64.125 -15 64.125 C-15 64.785 -15 65.445 -15 66.125 C-15.66 66.125 -16.32 66.125 -17 66.125 C-17.495 67.61 -17.495 67.61 -18 69.125 C-24.2409959 73.02562244 -29.74240707 73.8944973 -37 74.375 C-38.44826172 74.49101562 -38.44826172 74.49101562 -39.92578125 74.609375 C-42.2831369 74.79609624 -44.64053534 74.96761705 -47 75.125 C-47 75.785 -47 76.445 -47 77.125 C-46.01 77.13917969 -45.02 77.15335937 -44 77.16796875 C-36.19504837 77.40121791 -30.1572788 77.91836995 -24 83.125 C-23.42636719 83.54265625 -22.85273438 83.9603125 -22.26171875 84.390625 C-18.82572217 86.98197325 -17.29840025 89.07565127 -16 93.125 C-15.10890648 100.65879071 -16.50325695 107.0707101 -19 114.125 C-19.81603855 116.5404741 -20.62825071 118.95724286 -21.4375 121.375 C-21.65003418 122.00446533 -21.86256836 122.63393066 -22.08154297 123.2824707 C-24.277614 129.83494154 -26.16278142 136.46379969 -28 143.125 C-26.35 142.795 -24.7 142.465 -23 142.125 C-23 141.465 -23 140.805 -23 140.125 C-20.44071306 139.17791058 -17.87802764 138.24242133 -15.3125 137.3125 C-14.61060547 137.05146484 -13.90871094 136.79042969 -13.18554688 136.52148438 C-8.75540666 134.9266339 -4.36856585 133.72170641 0.234375 132.72265625 C8.43419703 130.90226824 16.17507589 127.99595736 24.04101562 125.08984375 C25.14251953 124.69410156 26.24402344 124.29835938 27.37890625 123.890625 C28.3644751 123.52743164 29.35004395 123.16423828 30.36547852 122.79003906 C33.15821528 122.08506131 34.39261203 121.9489149 37 123.125 C38.52050781 124.64038086 38.52050781 124.64038086 39.953125 126.58984375 C40.48655518 127.30333984 41.01998535 128.01683594 41.56958008 128.75195312 C42.12411865 129.51443359 42.67865723 130.27691406 43.25 131.0625 C44.40401542 132.6139753 45.55896145 134.16475882 46.71484375 135.71484375 C47.27413574 136.47007324 47.83342773 137.22530273 48.40966797 138.00341797 C51.07737095 141.56226643 53.8885495 144.99720888 56.70703125 148.4375 C58 150.125 58 150.125 58 151.125 C30.26184779 151.8318003 2.51877248 152.28337452 -25.22814941 152.41210938 C-28.28208918 152.42693521 -31.33572513 152.45134191 -34.38952637 152.48388672 C-38.02296717 152.52204873 -41.65599072 152.54041679 -45.28962517 152.54395103 C-47.27834158 152.5506017 -49.26696186 152.57688595 -51.25550842 152.60371399 C-62.21635262 152.57731697 -62.21635262 152.57731697 -67 148.125 C-70.38457248 144.28915119 -70.27575564 140.8442345 -70.21826172 135.96875 C-69.83962519 131.03546328 -68.50351249 126.42253012 -67.125 121.6875 C-66.85558594 120.70845703 -66.58617187 119.72941406 -66.30859375 118.72070312 C-64.29138765 111.56208147 -64.29138765 111.56208147 -62 108.125 C-61.46895697 106.09247642 -61.46895697 106.09247642 -61.125 103.8125 C-59.88768485 97.11528626 -57.92265873 90.65152514 -56 84.125 C-55.68675781 83.00222656 -55.37351563 81.87945312 -55.05078125 80.72265625 C-53.87288839 76.68979632 -52.54155648 72.72620452 -51.1875 68.75 C-47.71512334 58.4315955 -44.58095223 48.02932295 -41.75390625 37.515625 C-34.10419107 9.09089384 -34.10419107 9.09089384 -24.28515625 3.07421875 C-16.24000213 -0.2676145 -8.60049351 -0.1180638 0 0 Z " fill="#7E63C4" transform="translate(291,97.875)"/>
<path d="M0 0 C1.25167969 0.00902344 2.50335938 0.01804687 3.79296875 0.02734375 C6.8621801 0.05077284 9.93098756 0.08357853 13 0.125 C12.43702387 7.36862614 10.80757599 13.87692519 8.6875 20.8125 C8.04611941 22.94248096 7.40549034 25.07268836 6.765625 27.203125 C6.45818359 28.22212891 6.15074219 29.24113281 5.83398438 30.29101562 C5.1307369 32.68073948 4.47380793 35.07069698 3.859375 37.484375 C1.99230724 44.73112952 -0.35591681 50.23831077 -5 56.125 C-5.70125 57.07375 -6.4025 58.0225 -7.125 59 C-8.95240792 61.07106231 -10.66845348 62.64835387 -13 64.125 C-13.66 64.125 -14.32 64.125 -15 64.125 C-15 64.785 -15 65.445 -15 66.125 C-15.66 66.125 -16.32 66.125 -17 66.125 C-17.495 67.61 -17.495 67.61 -18 69.125 C-19.56640625 70.2578125 -19.56640625 70.2578125 -21.5625 71.25 C-22.52349609 71.74886719 -22.52349609 71.74886719 -23.50390625 72.2578125 C-29.77165134 74.43533896 -36.44364554 74.26135841 -43 74.1875 C-43.77472656 74.18298828 -44.54945313 74.17847656 -45.34765625 74.17382812 C-47.23180524 74.16219758 -49.11591365 74.14426906 -51 74.125 C-50.64648586 67.5260694 -49.03914545 61.65061952 -47.00463867 55.40307617 C-45.55588893 50.94479168 -44.27790686 46.48424525 -43.125 41.9375 C-41.4570492 35.64081826 -39.6428637 29.40117517 -37.6875 23.1875 C-37.29812256 21.8732605 -37.29812256 21.8732605 -36.90087891 20.5324707 C-34.5372189 13.21322228 -30.6672522 7.94596323 -24.5625 3.25 C-16.47592787 -0.3002024 -8.69717194 -0.11939096 0 0 Z " fill="#AC96E0" transform="translate(291,97.875)"/>
<path d="M0 0 C16.45500186 -0.16360222 32.90973948 -0.28699965 49.36535835 -0.3626852 C57.00621877 -0.3987633 64.64657354 -0.44793975 72.28710938 -0.52807617 C78.94750429 -0.5978992 85.60753299 -0.64301968 92.26828372 -0.65861946 C95.79456287 -0.66773719 99.31979448 -0.68912542 102.84573746 -0.7401104 C106.78423782 -0.79659773 110.72171826 -0.79792586 114.66064453 -0.79467773 C115.82661667 -0.81984467 116.99258881 -0.8450116 118.19389343 -0.87094116 C125.90444783 -0.80203995 125.90444783 -0.80203995 129.05758286 1.50633049 C131.49205445 4.24263274 132.8383101 6.5149303 134 10 C135.2065625 11.2065625 135.2065625 11.2065625 136.4375 12.4375 C138.69939394 14.69939394 139.71085056 16.17586333 141 19 C124.0060967 19.07008573 107.01223852 19.122986 90.01822376 19.15543652 C82.12757854 19.17090444 74.23702313 19.19199248 66.34643555 19.22631836 C59.46887629 19.25622307 52.59138207 19.27557555 45.7137596 19.28226548 C42.07219655 19.28617595 38.43081958 19.29536436 34.78931618 19.31719017 C30.72379939 19.34135964 26.65860597 19.34196931 22.59301758 19.34057617 C21.38604721 19.351362 20.17907684 19.36214783 18.93553162 19.3732605 C17.82640411 19.36913651 16.71727661 19.36501251 15.57453918 19.36076355 C14.6131091 19.36352893 13.65167902 19.36629431 12.66111469 19.36914349 C8.2493406 18.7571527 5.6807764 16.75641822 2.75 13.5 C-0.43119864 8.95543052 -0.08744385 5.33407459 0 0 Z " fill="#DC665D" transform="translate(242,261)"/>
<path d="M0 0 C6.93 0 13.86 0 21 0 C19.87490058 10.12589476 19.87490058 10.12589476 18.81665039 13.79785156 C18.58293228 14.62190491 18.34921417 15.44595825 18.1084137 16.29498291 C17.85736374 17.1515448 17.60631378 18.00810669 17.34765625 18.890625 C17.08746201 19.79826599 16.82726776 20.70590698 16.55918884 21.64105225 C16.0120368 23.54456568 15.46141531 25.44708499 14.9074707 27.34863281 C14.06142757 30.25368238 13.22611007 33.16165118 12.39257812 36.0703125 C11.85739069 37.92726209 11.32160418 39.78403915 10.78515625 41.640625 C10.53613052 42.50528381 10.2871048 43.36994263 10.03053284 44.26080322 C8.86229005 48.26284376 7.65414182 52.16462062 6 56 C-0.25734667 55.49941227 -4.03989824 53.92966369 -8.51953125 49.49609375 C-10.57445613 47.05622427 -11.89784954 45.12157038 -12.19140625 41.8984375 C-11.60869074 35.16747872 -9.4226923 28.47769229 -6.875 22.25 C-5.81863208 19.53362535 -5.40172531 16.87903136 -5 14 C-4.34 14 -3.68 14 -3 14 C-2.95101563 13.40832031 -2.90203125 12.81664062 -2.8515625 12.20703125 C-2.77679688 11.41683594 -2.70203125 10.62664062 -2.625 9.8125 C-2.52058594 8.64654297 -2.52058594 8.64654297 -2.4140625 7.45703125 C-2 5 -2 5 0 0 Z " fill="#EBAC6B" transform="translate(311,116)"/>
<path d="M0 0 C-1.02244823 6.34833527 -2.6491661 12.43435507 -4.5625 18.5625 C-4.78446045 19.27728516 -5.0064209 19.99207031 -5.23510742 20.72851562 C-6.86912095 25.86912095 -6.86912095 25.86912095 -8 27 C-8.36960994 28.44956397 -8.69659993 29.91014655 -9 31.375 C-9.54881592 34.00760137 -10.14727462 36.44182385 -11 39 C-13.31665039 40.07495117 -13.31665039 40.07495117 -16.34765625 41.04296875 C-17.42724609 41.39423828 -18.50683594 41.74550781 -19.61914062 42.10742188 C-20.75544922 42.46384766 -21.89175781 42.82027344 -23.0625 43.1875 C-24.20267578 43.55552734 -25.34285156 43.92355469 -26.51757812 44.30273438 C-29.34178442 45.21262511 -32.16911728 46.11114264 -35 47 C-34.39000099 40.85256554 -33.00280955 35.57143078 -30.93066406 29.73022461 C-29.57974072 25.85997294 -28.56589378 22.07490914 -27.75 18.0625 C-26.06360898 11.79210687 -22.35761128 8.45702801 -17 5 C-11.44397698 2.11283975 -6.36104907 -0.37144812 0 0 Z " fill="#E28964" transform="translate(315,176)"/>
<path d="M0 0 C3.3 0 6.6 0 10 0 C14 13.71428571 14 13.71428571 14 19 C14.99 19 15.98 19 17 19 C17.09152344 18.15179688 17.18304688 17.30359375 17.27734375 16.4296875 C18.10669551 12.49362887 19.59727497 9.6266737 21.5625 6.125 C22.52349609 4.39636719 22.52349609 4.39636719 23.50390625 2.6328125 C23.99761719 1.76398438 24.49132812 0.89515625 25 0 C28.3 0 31.6 0 35 0 C34.68993057 3.68771893 34.37702802 7.37516091 34.0625 11.0625 C33.97548828 12.10083984 33.88847656 13.13917969 33.79882812 14.20898438 C33.34503169 19.50327607 32.82652639 24.75044051 32 30 C29.36 30 26.72 30 24 30 C24 27.03 24 24.06 24 21 C23.34 21 22.68 21 22 21 C21.71125 21.928125 21.4225 22.85625 21.125 23.8125 C20 27 20 27 18 30 C16.0546875 30.29296875 16.0546875 30.29296875 13.875 30.1875 C12.59625 30.125625 11.3175 30.06375 10 30 C9.01 27.03 8.02 24.06 7 21 C6.34 23.97 5.68 26.94 5 30 C2.36 30 -0.28 30 -3 30 C-3.1856352 24.24530886 -2.75545284 19.25065962 -1.51171875 13.640625 C-0.636688 9.12519916 -0.3525019 4.58252467 0 0 Z " fill="#EBE8ED" transform="translate(221,309)"/>
<path d="M0 0 C2.97 0 5.94 0 9 0 C11.86964374 6.25172386 13.51137226 11.09647445 13 18 C13.99 18 14.98 18 16 18 C16.28875 17.0925 16.5775 16.185 16.875 15.25 C17.76531776 12.67797092 18.71494413 10.38653234 20 8 C20.66 8 21.32 8 22 8 C22.12375 7.236875 22.2475 6.47375 22.375 5.6875 C23 3 23 3 25 0 C27.1640625 -0.29296875 27.1640625 -0.29296875 29.625 -0.1875 C30.44226563 -0.16042969 31.25953125 -0.13335937 32.1015625 -0.10546875 C32.72804688 -0.07066406 33.35453125 -0.03585937 34 0 C34.21181349 5.61305759 33.59850655 10.59825407 32.51171875 16.1015625 C31.69882307 20.70590293 31.34248569 25.34039203 31 30 C28.36 30 25.72 30 23 30 C23.33 26.7 23.66 23.4 24 20 C23.34 20 22.68 20 22 20 C21.79503906 20.63808594 21.59007812 21.27617187 21.37890625 21.93359375 C21.10949219 22.75988281 20.84007812 23.58617187 20.5625 24.4375 C20.29566406 25.26121094 20.02882813 26.08492188 19.75390625 26.93359375 C19 29 19 29 18 30 C16.48071962 30.07179964 14.95832518 30.08392007 13.4375 30.0625 C12.61121094 30.05347656 11.78492188 30.04445313 10.93359375 30.03515625 C9.97646484 30.01775391 9.97646484 30.01775391 9 30 C7.74335022 27.09399739 7 25.20395416 7 22 C6.34 22 5.68 22 5 22 C5 24.64 5 27.28 5 30 C2.36 30 -0.28 30 -3 30 C-2.73893001 26.04860878 -2.47228307 22.09763772 -2.20043945 18.14697266 C-2.1087312 16.80267572 -2.01855335 15.45827347 -1.92993164 14.11376953 C-1.80235801 12.18234758 -1.66884146 10.25132106 -1.53515625 8.3203125 C-1.456604 7.15773926 -1.37805176 5.99516602 -1.29711914 4.79736328 C-1 2 -1 2 0 0 Z " fill="#F3F2F5" transform="translate(402,309)"/>
<path d="M0 0 C3.11990886 1.55995443 5.65081295 3.41840675 8 6 C9.62055204 10.86165612 10.11086431 16.17677899 8.19921875 21.03515625 C5.02962635 25.99104815 0.42326862 28.89976689 -5 31 C-10.24344084 31.71097503 -13.56184381 30.8601451 -18 28 C-21.80942005 24.49945185 -22.7657011 21.28127532 -23.08984375 16.26953125 C-22.91148693 11.76408284 -21.45433128 8.48791861 -18.30859375 5.26953125 C-12.42555122 0.09884042 -7.90542767 -1.14756208 0 0 Z " fill="#E9E6EC" transform="translate(86,309)"/>
<path d="M0 0 C5.31290351 3.75419837 5.31290351 3.75419837 6.375 6.73046875 C7.24928864 12.5738156 7.67820847 17.03875093 4.18359375 22.10546875 C0.00336906 27.03321598 -4.45460404 29.38413986 -10.81640625 30.29296875 C-15.1280368 29.67702153 -18.80042555 28.41176817 -22.31640625 25.79296875 C-25.69396575 20.8751541 -25.09610564 14.4578643 -24.31640625 8.79296875 C-22.20728342 4.37206716 -19.16161966 2.28733886 -15.00390625 -0.14453125 C-9.67298179 -1.68056033 -5.10144679 -2.65825811 0 0 Z " fill="#EEECF0" transform="translate(209.31640625,310.20703125)"/>
<path d="M0 0 C2.97 0 5.94 0 9 0 C10.01019544 2.66324254 11.00837705 5.32987381 12 8 C12.391875 9.03125 12.78375 10.0625 13.1875 11.125 C14.05925276 14.20966362 14.151878 16.81056203 14 20 C16.80691738 18.59654131 16.96959375 16.95890933 18.0625 14.0625 C19.96969697 9.06060606 19.96969697 9.06060606 21 7 C21.66 7 22.32 7 23 7 C23.309375 6.38125 23.61875 5.7625 23.9375 5.125 C24.625 3.75 25.3125 2.375 26 1 C28.64 1 31.28 1 34 1 C33.41633235 10.67398084 32.77749545 20.33920544 32 30 C29.36 30 26.72 30 24 30 C24 27.03 24 24.06 24 21 C23.34 21 22.68 21 22 21 C21.01 23.97 20.02 26.94 19 30 C15.7 30 12.4 30 9 30 C8.34 26.7 7.68 23.4 7 20 C6.67 20 6.34 20 6 20 C5.67 23.3 5.34 26.6 5 30 C2.69 30 0.38 30 -2 30 C-1.86076952 25.93724554 -1.71246082 21.87487143 -1.5625 17.8125 C-1.52318359 16.66201172 -1.48386719 15.51152344 -1.44335938 14.32617188 C-1.38051758 12.65844727 -1.38051758 12.65844727 -1.31640625 10.95703125 C-1.27974854 9.93585205 -1.24309082 8.91467285 -1.20532227 7.86254883 C-1.01159937 5.16171537 -0.59548047 2.63833872 0 0 Z " fill="#F0EEF2" transform="translate(364,309)"/>
<path d="M0 0 C-0.68659 9.02865852 -3.6513343 14.57946261 -10 21 C-13.59210526 24 -13.59210526 24 -16 24 C-16 24.66 -16 25.32 -16 26 C-16.66 26 -17.32 26 -18 26 C-18.495 27.485 -18.495 27.485 -19 29 C-20.56640625 30.1328125 -20.56640625 30.1328125 -22.5625 31.125 C-23.20316406 31.45757812 -23.84382813 31.79015625 -24.50390625 32.1328125 C-30.77165134 34.31033896 -37.44364554 34.13635841 -44 34.0625 C-45.16208984 34.05573242 -45.16208984 34.05573242 -46.34765625 34.04882812 C-48.23180524 34.03719758 -50.11591365 34.01926906 -52 34 C-51.85892253 32.54119891 -51.71197585 31.08296449 -51.5625 29.625 C-51.48128906 28.81289062 -51.40007812 28.00078125 -51.31640625 27.1640625 C-51 25 -51 25 -50 23 C-48.19921875 22.46484375 -48.19921875 22.46484375 -45.6875 21.9375 C-38.65526952 20.17014049 -32.27583979 17.10511029 -25.73120117 14.04858398 C-24.4701355 13.46185913 -24.4701355 13.46185913 -23.18359375 12.86328125 C-22.42618896 12.50532471 -21.66878418 12.14736816 -20.88842773 11.77856445 C-19 11 -19 11 -17 11 C-17 10.34 -17 9.68 -17 9 C-14.69 8.34 -12.38 7.68 -10 7 C-10 6.34 -10 5.68 -10 5 C-8.3203125 3.7109375 -8.3203125 3.7109375 -6.125 2.375 C-5.40570313 1.92898437 -4.68640625 1.48296875 -3.9453125 1.0234375 C-2 0 -2 0 0 0 Z " fill="#C0ABED" transform="translate(292,138)"/>
<path d="M0 0 C2.72977064 -0.08126109 5.4571017 -0.14061663 8.1875 -0.1875 C9.34088867 -0.22520508 9.34088867 -0.22520508 10.51757812 -0.26367188 C15.15647198 -0.32340012 18.27805342 -0.10041764 22 3 C23.21762731 6.65288193 23.39075851 9.15754136 23 13 C22.154375 14.010625 21.30875 15.02125 20.4375 16.0625 C17.64784546 18.7574688 17.64784546 18.7574688 18.125 22.0625 C18.41375 23.031875 18.7025 24.00125 19 25 C19.185625 25.94875 19.37125 26.8975 19.5625 27.875 C19.706875 28.57625 19.85125 29.2775 20 30 C17.36 30 14.72 30 12 30 C11.74605469 29.36191406 11.49210937 28.72382813 11.23046875 28.06640625 C10.88628906 27.24011719 10.54210937 26.41382813 10.1875 25.5625 C9.85105469 24.73878906 9.51460938 23.91507812 9.16796875 23.06640625 C8.11596912 20.66627512 8.11596912 20.66627512 5 20 C4.67 23.3 4.34 26.6 4 30 C1.69 30 -0.62 30 -3 30 C-3.16866551 23.14796362 -2.5453314 16.70390192 -1.5 9.9375 C-1.35691406 8.97650391 -1.21382813 8.01550781 -1.06640625 7.02539062 C-0.71674414 4.6826545 -0.3611856 2.34098223 0 0 Z " fill="#F0EEF1" transform="translate(475,309)"/>
<path d="M0 0 C6.93 0 13.86 0 21 0 C19.875 10.125 19.875 10.125 18.37109375 15.12890625 C18.05849609 16.18271484 17.74589844 17.23652344 17.42382812 18.32226562 C16.9355957 19.92618164 16.9355957 19.92618164 16.4375 21.5625 C16.10814453 22.66658203 15.77878906 23.77066406 15.43945312 24.90820312 C14.63313872 27.60760352 13.81986701 30.30469119 13 33 C12.67 33 12.34 33 12 33 C12 31.02 12 29.04 12 27 C5.58869851 24.66861764 -0.195641 24.84709306 -7 25 C-6.34 21.37 -5.68 17.74 -5 14 C-4.34 14 -3.68 14 -3 14 C-2.95101563 13.40832031 -2.90203125 12.81664062 -2.8515625 12.20703125 C-2.77679688 11.41683594 -2.70203125 10.62664062 -2.625 9.8125 C-2.55539062 9.03519531 -2.48578125 8.25789063 -2.4140625 7.45703125 C-2 5 -2 5 0 0 Z " fill="#ECA369" transform="translate(311,116)"/>
<path d="M0 0 C2.64 0 5.28 0 8 0 C7.99476318 0.63091553 7.98952637 1.26183105 7.98413086 1.91186523 C7.96342174 4.75373347 7.95035934 7.59558588 7.9375 10.4375 C7.92912109 11.43072266 7.92074219 12.42394531 7.91210938 13.44726562 C7.90888672 14.39150391 7.90566406 15.33574219 7.90234375 16.30859375 C7.89710693 17.18314209 7.89187012 18.05769043 7.88647461 18.95874023 C7.77215191 20.99440206 7.77215191 20.99440206 9 22 C11.33297433 22.04092937 13.66705225 22.04241723 16 22 C17.40884697 13.14272958 17.40884697 13.14272958 18.5625 4.25 C19 1 19 1 20 0 C22.67058851 -0.14115161 25.32432238 -0.04247107 28 0 C27.28224706 19.0080779 27.28224706 19.0080779 21.6875 25.8125 C17.34317073 29.34858197 14.11354533 31.32004236 8.4375 31 C3.95774083 30.320104 1.77806994 28.6462168 -1 25 C-2.29132612 21.12602163 -1.89572379 17.63171216 -1.625 13.625 C-1.58117187 12.86960937 -1.53734375 12.11421875 -1.4921875 11.3359375 C-1.24932085 7.47705629 -0.88756962 3.77593175 0 0 Z " fill="#F5F4F6" transform="translate(333,309)"/>
<path d="M0 0 C2.97 0 5.94 0 9 0 C10.97093682 5.5544583 12.46024001 10.91808864 13.52734375 16.7109375 C13.99262932 19.20214275 13.99262932 19.20214275 15.125 22.3125 C16.01436017 25.04410622 16.16770187 27.14906823 16 30 C13.36 30 10.72 30 8 30 C7.67 28.02 7.34 26.04 7 24 C3.37 24 -0.26 24 -4 24 C-4.33 25.65 -4.66 27.3 -5 29 C-6 30 -6 30 -7.84765625 30.09765625 C-9.8984375 30.06510417 -11.94921875 30.03255208 -14 30 C-12.74921377 24.7883907 -10.9971565 21.49573474 -8 17 C-6.93583775 14.51695474 -5.97790478 12.00454389 -5.015625 9.48046875 C-3.63540302 6.109542 -1.89204509 3.1083598 0 0 Z " fill="#E7E4EA" transform="translate(451,309)"/>
<path d="M0 0 C7.26 0 14.52 0 22 0 C22 2.31 22 4.62 22 7 C17.05 7 12.1 7 7 7 C7 8.65 7 10.3 7 12 C10.63 12 14.26 12 18 12 C18.04254356 13.99954746 18.04080783 16.00041636 18 18 C17 19 17 19 14.49609375 19.09765625 C13.48675781 19.08605469 12.47742188 19.07445312 11.4375 19.0625 C10.42558594 19.05347656 9.41367188 19.04445313 8.37109375 19.03515625 C7.19740234 19.01775391 7.19740234 19.01775391 6 19 C6 20.32 6 21.64 6 23 C10.29 23 14.58 23 19 23 C19 25.31 19 27.62 19 30 C11.74 30 4.48 30 -3 30 C-3 19.875 -3 19.875 -2.34375 15.52734375 C-2.22193359 14.69710693 -2.10011719 13.86687012 -1.97460938 13.01147461 C-1.81798828 11.99706299 -1.66136719 10.98265137 -1.5 9.9375 C-1.005 6.658125 -0.51 3.37875 0 0 Z " fill="#EAE7ED" transform="translate(132,309)"/>
<path d="M0 0 C2.42509628 2.1977435 2.7395304 3.60004157 3 6.8125 C-0.44227886 8.90245502 -0.44227886 8.90245502 -2.9375 8.5 C-3.618125 8.273125 -4.29875 8.04625 -5 7.8125 C-8.47252823 7.05677046 -8.47252823 7.05677046 -12 6.8125 C-12 7.8025 -12 8.7925 -12 9.8125 C-10.205625 9.9671875 -10.205625 9.9671875 -8.375 10.125 C-4.43072271 10.61540748 -1.42491833 11.72413517 2 13.8125 C3.42662219 16.66574437 3.31033868 18.64704549 3 21.8125 C0.77613341 25.30714749 -1.17432517 27.28894178 -5 28.8125 C-9.70964735 29.43564275 -14.74637757 29.89357349 -19.1171875 27.796875 C-20.75 26.5 -20.75 26.5 -23 23.8125 C-23 22.8225 -23 21.8325 -23 20.8125 C-19.23355012 18.98308149 -17.03077875 18.58087316 -13 19.8125 C-12.67 20.1425 -12.34 20.4725 -12 20.8125 C-10.00041636 20.85330783 -7.99954746 20.85504356 -6 20.8125 C-6 20.1525 -6 19.4925 -6 18.8125 C-6.75925781 18.63074219 -7.51851562 18.44898438 -8.30078125 18.26171875 C-9.29464844 18.01035156 -10.28851562 17.75898438 -11.3125 17.5 C-12.29863281 17.25636719 -13.28476562 17.01273437 -14.30078125 16.76171875 C-17.06832683 15.7884719 -18.32484856 15.19444291 -20 12.8125 C-20.67725502 9.74792104 -20.60623372 6.88816283 -20 3.8125 C-14.72181456 -1.89364642 -7.07553751 -2.8007336 0 0 Z " fill="#EFEDF1" transform="translate(561,310.1875)"/>
<path d="M0 0 C2.75694947 1.39431927 3.93052368 2.59493293 6 5 C6 5.99 6 6.98 6 8 C2.91190305 9.76462683 1.76687864 10 -2 10 C-2 9.34 -2 8.68 -2 8 C-4.31 8 -6.62 8 -9 8 C-9.33 8.99 -9.66 9.98 -10 11 C-9.25234375 11.10957031 -8.5046875 11.21914063 -7.734375 11.33203125 C-6.74953125 11.49058594 -5.7646875 11.64914062 -4.75 11.8125 C-3.77546875 11.96332031 -2.8009375 12.11414063 -1.796875 12.26953125 C1.18036261 13.04710588 2.80818566 13.85427522 5 16 C5.61379582 20.14312176 5.47638972 22.23437367 3.25 25.8125 C-0.5914549 29.54724782 -3.60402183 30.32316314 -8.9375 30.4375 C-15.49877128 30.33322552 -15.49877128 30.33322552 -18.3125 27.75 C-20 25 -20 25 -19.8125 22.6875 C-19.544375 22.130625 -19.27625 21.57375 -19 21 C-15.625 20.375 -15.625 20.375 -12 20 C-11.34 20.66 -10.68 21.32 -10 22 C-6.91652174 22.16681109 -6.91652174 22.16681109 -4 22 C-4 21.34 -4 20.68 -4 20 C-4.75925781 19.82984375 -5.51851563 19.6596875 -6.30078125 19.484375 C-7.29464844 19.24203125 -8.28851563 18.9996875 -9.3125 18.75 C-10.29863281 18.51796875 -11.28476562 18.2859375 -12.30078125 18.046875 C-15.4003543 16.84472511 -16.38542599 15.86680137 -18 13 C-18.64570118 9.51321361 -18.82660122 7.24672197 -16.81640625 4.21484375 C-11.97303699 -0.69821428 -6.625812 -1.35301867 0 0 Z " fill="#EFEDF1" transform="translate(322,309)"/>
<path d="M0 0 C7.26 0 14.52 0 22 0 C22 2.31 22 4.62 22 7 C17.05 7 12.1 7 7 7 C7 8.65 7 10.3 7 12 C10.63 12 14.26 12 18 12 C18.04254356 13.99954746 18.04080783 16.00041636 18 18 C17 19 17 19 14.49609375 19.09765625 C13.48675781 19.08605469 12.47742188 19.07445312 11.4375 19.0625 C10.42558594 19.05347656 9.41367187 19.04445313 8.37109375 19.03515625 C7.19740234 19.01775391 7.19740234 19.01775391 6 19 C6 20.65 6 22.3 6 24 C10.29 24 14.58 24 19 24 C19 25.98 19 27.96 19 30 C11.74 30 4.48 30 -3 30 C-2.42228991 19.89007337 -1.43210745 10.02475214 0 0 Z " fill="#F0EEF1" transform="translate(259,309)"/>
<path d="M0 0 C3.22496917 1.80598274 4.562675 2.78894616 5.8125 6.25 C5.874375 6.8275 5.93625 7.405 6 8 C2.46145836 10.27477677 0.29052627 9.99082706 -3.75 9.125 C-4.73484375 8.92132813 -5.7196875 8.71765625 -6.734375 8.5078125 C-7.85585937 8.25644531 -7.85585937 8.25644531 -9 8 C-9 8.99 -9 9.98 -9 11 C-8.15695313 11.19335938 -7.31390625 11.38671875 -6.4453125 11.5859375 C-5.34960938 11.84632813 -4.25390625 12.10671875 -3.125 12.375 C-1.48917969 12.75785156 -1.48917969 12.75785156 0.1796875 13.1484375 C3 14 3 14 5 16 C5.7977208 22.95156695 5.7977208 22.95156695 2.8125 26.875 C-2.53051124 30.91194182 -6.44985686 31.4158821 -13 31 C-16.4203866 29.82986774 -16.91540482 29.12689277 -19 26 C-19 24.68 -19 23.36 -19 22 C-13.15659442 20.75672222 -8.73303505 21.42699038 -3 23 C-3.33 22.01 -3.66 21.02 -4 20 C-5.96577459 19.08359427 -5.96577459 19.08359427 -8.3125 18.5 C-15.02426201 16.40524625 -15.02426201 16.40524625 -17 14 C-17.66100451 9.6208451 -17.28527348 7.51349226 -15.125 3.625 C-11.12446645 -1.31683556 -5.98572141 -0.63053054 0 0 Z " fill="#EDEBEF" transform="translate(175,309)"/>
<path d="M0 0 C7.26 0 14.52 0 22 0 C22 2.31 22 4.62 22 7 C17.05 7 12.1 7 7 7 C7 8.65 7 10.3 7 12 C10.63 12 14.26 12 18 12 C18 13.98 18 15.96 18 18 C14.04 18 10.08 18 6 18 C6 19.98 6 21.96 6 24 C10.29 24 14.58 24 19 24 C19 25.98 19 27.96 19 30 C12.07 30 5.14 30 -2 30 C-2.19650312 19.68358642 -1.55444964 10.20107577 0 0 Z " fill="#ECEAEE" transform="translate(515,309)"/>
<path d="M0 0 C2.64 0 5.28 0 8 0 C10.66038099 5.5626148 11.96232949 10.93267948 13 17 C15.35785318 16.10664203 15.35785318 16.10664203 16.125 12.9375 C16.558125 11.4834375 16.558125 11.4834375 17 10 C17.66 10 18.32 10 19 10 C19.20496094 9.36191406 19.40992187 8.72382813 19.62109375 8.06640625 C19.89050781 7.24011719 20.15992187 6.41382813 20.4375 5.5625 C20.70433594 4.73878906 20.97117187 3.91507812 21.24609375 3.06640625 C22 1 22 1 23 0 C25.67058851 -0.14115161 28.32432238 -0.04247107 31 0 C30.125 4.75 30.125 4.75 29 7 C28.34 7 27.68 7 27 7 C26.75507812 7.80695313 26.51015625 8.61390625 26.2578125 9.4453125 C24.73868763 13.73849149 22.84272902 17.77266742 20.875 21.875 C20.50246094 22.65875 20.12992188 23.4425 19.74609375 24.25 C18.83381003 26.16813499 17.91733016 28.08427329 17 30 C14.03 30 11.06 30 8 30 C6.36910415 26.7382083 5.69047319 24.98418984 5.125 21.5625 C4.12622275 16.14977167 2.5117418 11.01223128 0.8046875 5.78515625 C0 3 0 3 0 0 Z " fill="#F2F0F3" transform="translate(97,309)"/>
<path d="M0 0 C2.64 0 5.28 0 8 0 C8.33853295 8.16240568 7.29901921 15.95072024 6 24 C9.96 24 13.92 24 18 24 C18 25.98 18 27.96 18 30 C11.4 30 4.8 30 -2 30 C-2.19576826 19.72216659 -1.61305863 10.15362797 0 0 Z " fill="#EAE7EC" transform="translate(40,309)"/>
<path d="M0 0 C2.42257378 3.7095661 2.5397361 5.62681719 1.76171875 9.90234375 C0.77914692 12.6888167 -0.6800771 14.55659934 -3.1171875 16.24609375 C-6.7496719 17.82117516 -10.16249946 17.94359595 -14 17.0625 C-16.85838005 14.90128582 -17.77465717 13.39558076 -18.37109375 9.8671875 C-18.58160826 6.00137557 -18.50507223 3.78403176 -16.25 0.5625 C-11.17082244 -2.82361837 -5.22695091 -3.37573913 0 0 Z " fill="#30124A" transform="translate(229,360.9375)"/>
<path d="M0 0 C0.99 0.66 1.98 1.32 3 2 C3 2.66 3 3.32 3 4 C-14.01118632 4.04670713 -31.02235265 4.08198252 -48.03358841 4.10362434 C-55.93208204 4.11393981 -63.83053584 4.1280053 -71.72900391 4.15087891 C-78.61277917 4.17080452 -85.49652559 4.18371447 -92.38032889 4.18817699 C-96.02572687 4.19078578 -99.67104233 4.19692316 -103.31641388 4.21146011 C-107.38448253 4.22755132 -111.45240745 4.22798022 -115.52050781 4.22705078 C-116.73107346 4.23424133 -117.9416391 4.24143188 -119.18888855 4.24884033 C-120.29664139 4.246091 -121.40439423 4.24334167 -122.54571533 4.24050903 C-123.50806721 4.24235262 -124.47041908 4.24419621 -125.46193314 4.24609566 C-128.09995087 3.99030858 -129.73762104 3.34311471 -132 2 C-129.44458241 0.72229121 -127.68545969 0.89290064 -124.82418823 0.91770935 C-123.72759888 0.92474884 -122.63100952 0.93178833 -121.50119019 0.93904114 C-120.29278473 0.95198715 -119.08437927 0.96493317 -117.83935547 0.97827148 C-116.57109924 0.98787903 -115.30284302 0.99748657 -113.99615479 1.00738525 C-110.51286374 1.03388779 -107.02965624 1.06666284 -103.54643011 1.10053515 C-99.90827187 1.13485691 -96.27006882 1.16345021 -92.63186646 1.19264221 C-85.73994671 1.24881627 -78.8480831 1.31016779 -71.95622456 1.37336355 C-64.11113673 1.44504916 -56.26600393 1.51098713 -48.42086196 1.57643402 C-32.28051577 1.71121157 -16.14024172 1.85323404 0 2 C0 1.34 0 0.68 0 0 Z " fill="#A54452" transform="translate(380,276)"/>
<path d="M0 0 C0.66 0 1.32 0 2 0 C2.18175781 0.54269531 2.36351562 1.08539063 2.55078125 1.64453125 C2.80214844 2.35996094 3.05351562 3.07539063 3.3125 3.8125 C3.67794922 4.87404297 3.67794922 4.87404297 4.05078125 5.95703125 C5.06724258 8.14472373 6.20820594 9.40896718 8 11 C6.79418283 14.61745151 5.86446408 14.95114287 2.6875 16.875 C-0.98413093 19.20619424 -3.40531814 21.47123267 -6 25 C-6.66 25 -7.32 25 -8 25 C-8.391875 23.9275 -8.78375 22.855 -9.1875 21.75 C-10.72740104 18.08533167 -12.78150539 16.3486312 -16 14 C-16 13.34 -16 12.68 -16 12 C-15.34773438 11.72027344 -14.69546875 11.44054687 -14.0234375 11.15234375 C-8.50946391 8.62307268 -4.76320859 6.27309544 -1.15625 1.35546875 C-0.7746875 0.90816406 -0.393125 0.46085938 0 0 Z " fill="#E1A747" transform="translate(289,161)"/>
<path d="M0 0 C2.31 0 4.62 0 7 0 C7.1074664 6.60246686 6.71245093 13.00121203 6 19.5625 C5.90460938 20.47580078 5.80921875 21.38910156 5.7109375 22.33007812 C5.47808125 24.55385532 5.24104145 26.77709776 5 29 C2.36 29 -0.28 29 -3 29 C-2.47947582 19.21962456 -1.53611741 9.67903105 0 0 Z " fill="#EEEBF0" transform="translate(504,310)"/>
<path d="M0 0 C2.29296875 0.15234375 2.29296875 0.15234375 5 1 C7.48850254 4.46015212 9.10295591 8.16179452 11 12 C11.66 8.04 12.32 4.08 13 0 C13.99 0 14.98 0 16 0 C16.02705308 2.41674224 16.04686438 4.8331794 16.0625 7.25 C16.07087891 7.93191406 16.07925781 8.61382812 16.08789062 9.31640625 C16.10428392 12.69342554 16.05628768 15.77291639 15 19 C13.35 19 11.7 19 10 19 C9.32845067 17.71086513 8.66291141 16.41859796 8 15.125 C7.62875 14.40570313 7.2575 13.68640625 6.875 12.9453125 C6 11 6 11 6 9 C5.34 9 4.68 9 4 9 C3.01 12.3 2.02 15.6 1 19 C0.01 19 -0.98 19 -2 19 C-2.21432579 12.35590042 -1.51233701 6.46794133 0 0 Z " fill="#9B84C1" transform="translate(307,359)"/>
<path d="M0 0 C2.43180465 2.26409398 2.94673331 3.64235222 3.4375 6.9375 C2.87499856 10.87501007 2.03727005 12.41832046 -1 15 C-4.51752109 15.75021577 -7.72292455 15.63853772 -11 14 C-12.62723316 10.74553368 -12.6503355 7.50615661 -12 4 C-8.67088538 -0.47708517 -5.32967658 -1.73214489 0 0 Z " fill="#2D1044" transform="translate(205,317)"/>
<path d="M0 0 C2.1015625 0.37890625 2.1015625 0.37890625 4.2265625 1.94140625 C5.75563014 6.20095181 4.80721282 9.7600614 3.0390625 13.81640625 C0.37370577 15.96588749 -1.67260729 15.89076727 -5.0234375 15.6875 C-6.8984375 15.37890625 -6.8984375 15.37890625 -8.8984375 14.37890625 C-10.52802852 11.1197242 -10.38689697 7.89723022 -9.8984375 4.37890625 C-8.09093575 -0.44109842 -4.62259187 -0.23338819 0 0 Z " fill="#2A0D41" transform="translate(81.8984375,316.62109375)"/>
<path d="M0 0 C1.65 0 3.3 0 5 0 C5.84080019 2.41429769 6.67281402 4.83103993 7.5 7.25 C7.73847656 7.93191406 7.97695313 8.61382812 8.22265625 9.31640625 C9.39421287 12.76413003 10 15.31702904 10 19 C8.68 18.67 7.36 18.34 6 18 C6 17.01 6 16.02 6 15 C2.7 15.33 -0.6 15.66 -4 16 C-4.33 16.99 -4.66 17.98 -5 19 C-6.32 19 -7.64 19 -9 19 C-8.34 17.02 -7.68 15.04 -7 13 C-6.34 13 -5.68 13 -5 13 C-4.5978125 11.453125 -4.5978125 11.453125 -4.1875 9.875 C-3.19001103 6.3514958 -1.7338102 3.23119173 0 0 Z " fill="#9F88C5" transform="translate(283,359)"/>
<path d="M0 0 C2 1.3125 2 1.3125 4 3 C4 3.99 4 4.98 4 6 C-36.26 6 -76.52 6 -118 6 C-118.33 5.34 -118.66 4.68 -119 4 C-118.23406525 4.00222061 -117.46813049 4.00444122 -116.6789856 4.00672913 C-106.8276661 4.03392115 -96.97635083 4.05188247 -87.125 4.0625 C-85.94209003 4.06378403 -85.94209003 4.06378403 -84.7352829 4.06509399 C-56.14514618 4.09249187 -27.58141362 3.75414818 1 3 C0.505 1.515 0.505 1.515 0 0 Z " fill="#422479" transform="translate(347,245)"/>
<path d="M0 0 C1.5625 1.625 1.5625 1.625 1.5625 3.625 C1.046875 3.480625 0.53125 3.33625 0 3.1875 C-0.804375 3.001875 -1.60875 2.81625 -2.4375 2.625 C-3.5925 2.356875 -4.7475 2.08875 -5.9375 1.8125 C-9.40527539 1.30302054 -9.40527539 1.30302054 -11.875 3.0625 C-14.12284866 6.7489718 -13.72245114 9.35073289 -13.4375 13.625 C-8.72150182 14.54970553 -5.76484391 14.85423777 -1.4375 12.625 C-1.4375 11.635 -1.4375 10.645 -1.4375 9.625 C-3.4175 9.625 -5.3975 9.625 -7.4375 9.625 C-7.4375 8.965 -7.4375 8.305 -7.4375 7.625 C-4.1375 7.625 -0.8375 7.625 2.5625 7.625 C2.2325 10.925 1.9025 14.225 1.5625 17.625 C-0.85604446 17.76036629 -3.26699783 17.85920279 -5.6875 17.9375 C-6.36941406 17.97939453 -7.05132812 18.02128906 -7.75390625 18.06445312 C-11.488969 18.15510999 -13.09089444 17.94069805 -15.890625 15.390625 C-18.14479234 11.36044703 -18.2782977 8.12326772 -17.4375 3.625 C-15.66761713 1.09659589 -14.44740868 0.04289325 -11.625 -1.125 C-3.61676566 -2.04022678 -3.61676566 -2.04022678 0 0 Z " fill="#A089C6" transform="translate(260.4375,360.375)"/>
<path d="M0 0 C5.45276718 1.48711832 5.45276718 1.48711832 7.4375 2.9375 C7.7675 4.2575 8.0975 5.5775 8.4375 6.9375 C5.1375 6.9375 1.8375 6.9375 -1.5625 6.9375 C-1.5625 7.5975 -1.5625 8.2575 -1.5625 8.9375 C0.4175 8.9375 2.3975 8.9375 4.4375 8.9375 C4.4375 9.9275 4.4375 10.9175 4.4375 11.9375 C1.31248485 14.58902801 -0.17873801 14.96308413 -4.3125 14.6875 C-7.5625 13.9375 -7.5625 13.9375 -8.5625 12.9375 C-9.25906992 5.97180079 -9.25906992 5.97180079 -6.5 1.875 C-3.5625 -0.0625 -3.5625 -0.0625 0 0 Z " fill="#351850" transform="translate(254.5625,361.0625)"/>
<path d="M0 0 C1.32 0 2.64 0 4 0 C4 2.64 4 5.28 4 8 C7.3 8 10.6 8 14 8 C14 5.36 14 2.72 14 0 C14.99 0 15.98 0 17 0 C17.10655578 6.44070471 16.96205088 12.62641289 16 19 C15.01 19 14.02 19 13 19 C13 16.36 13 13.72 13 11 C9.37 11 5.74 11 2 11 C2 13.64 2 16.28 2 19 C1.01 19 0.02 19 -1 19 C-1.09507063 12.56688704 -1.15316726 6.34241995 0 0 Z " fill="#9D86C3" transform="translate(350,359)"/>
<path d="M0 0 C2.12472576 -0.05386629 4.24983652 -0.09273071 6.375 -0.125 C7.55835938 -0.14820313 8.74171875 -0.17140625 9.9609375 -0.1953125 C13 0 13 0 15 2 C15.125 5.125 15.125 5.125 15 8 C14.01 8.495 14.01 8.495 13 9 C13 7.02 13 5.04 13 3 C9.7 2.67 6.4 2.34 3 2 C3 4.31 3 6.62 3 9 C5.97 9 8.94 9 12 9 C12.33 12.3 12.66 15.6 13 19 C9 17 9 17 8.0625 14.4375 C7.711875 13.633125 7.36125 12.82875 7 12 C4.45224694 11.10613836 4.45224694 11.10613836 2 11 C2 13.64 2 16.28 2 19 C0.68 19 -0.64 19 -2 19 C-2.24794402 12.4294834 -1.32388229 6.43028541 0 0 Z " fill="#AE98D6" transform="translate(405,359)"/>
<path d="M0 0 C2.42257378 3.7095661 2.5397361 5.62681719 1.76171875 9.90234375 C0.77914692 12.6888167 -0.6800771 14.55659934 -3.1171875 16.24609375 C-6.7496719 17.82117516 -10.16249946 17.94359595 -14 17.0625 C-16.85838005 14.90128582 -17.77465717 13.39558076 -18.37109375 9.8671875 C-18.58160826 6.00137557 -18.50507223 3.78403176 -16.25 0.5625 C-11.17082244 -2.82361837 -5.22695091 -3.37573913 0 0 Z M-15 5.0625 C-15.5923739 8.69079011 -15.4674199 10.32241849 -13.5 13.4375 C-13.005 13.97375 -12.51 14.51 -12 15.0625 C-8.30463414 14.77824109 -5.6785229 14.5148486 -2.5625 12.4375 C-0.37653369 9.11483121 -0.43380609 6.95508312 -1 3.0625 C-3.04633004 0.71300996 -4.40905746 0.18371898 -7.4375 -0.4375 C-11.2514826 0.30669173 -12.6808417 2.01446338 -15 5.0625 Z " fill="#A58FCD" transform="translate(229,360.9375)"/>
<path d="M0 0 C0 2.64 0 5.28 0 8 C-2.70440515 9.01189324 -5.41270901 10.00965691 -8.125 11 C-8.88554687 11.28617188 -9.64609375 11.57234375 -10.4296875 11.8671875 C-14.77716157 13.44127294 -18.30189258 14.36023827 -23 14 C-19.87565445 8.16900216 -16.35219796 6.2024159 -10.375 3.625 C-9.21097656 3.09326172 -9.21097656 3.09326172 -8.0234375 2.55078125 C-2.35065758 0 -2.35065758 0 0 0 Z " fill="#ECAB6B" transform="translate(304,207)"/>
<path d="M0 0 C1.62418745 -0.08090971 3.24951745 -0.13914995 4.875 -0.1875 C5.77992188 -0.22230469 6.68484375 -0.25710938 7.6171875 -0.29296875 C8.79667969 -0.14794922 8.79667969 -0.14794922 10 0 C12.469315 3.70397249 12.35392593 6.71173467 12 11 C11.84273437 11.58394531 11.68546875 12.16789062 11.5234375 12.76953125 C10.75119697 16.06019798 10.63166185 19.38646343 10.4375 22.75 C10.293125 25.1425 10.14875 27.535 10 30 C16.93 30 23.86 30 31 30 C31 30.33 31 30.66 31 31 C27.39598519 31.08701039 23.79223988 31.14039388 20.1875 31.1875 C19.16333984 31.21263672 18.13917969 31.23777344 17.08398438 31.26367188 C15.60961914 31.27817383 15.60961914 31.27817383 14.10546875 31.29296875 C13.19949951 31.3086792 12.29353027 31.32438965 11.36010742 31.34057617 C9 31 9 31 7.1965332 29.73730469 C5.72375289 27.5989034 5.65695167 26.48788582 5.75 23.91015625 C5.79060547 22.71737061 5.79060547 22.71737061 5.83203125 21.50048828 C6.10326067 17.46279676 6.51072258 13.45420315 7 9.4375 C7.14308594 8.21063477 7.14308594 8.21063477 7.2890625 6.95898438 C7.52144509 4.97211325 7.76005516 2.98597206 8 1 C5.69 1 3.38 1 1 1 C1 3.31 1 5.62 1 8 C0.67 8 0.34 8 0 8 C0 5.36 0 2.72 0 0 Z " fill="#4E3562" transform="translate(503,309)"/>
<path d="M0 0 C4.62 0 9.24 0 14 0 C14 0.66 14 1.32 14 2 C10.37 2 6.74 2 3 2 C3 3.98 3 5.96 3 8 C5.97 8 8.94 8 12 8 C12 8.99 12 9.98 12 11 C8.7 11 5.4 11 2 11 C2 12.98 2 14.96 2 17 C5.3 17 8.6 17 12 17 C12 17.66 12 18.32 12 19 C7.71 19 3.42 19 -1 19 C-0.67 12.73 -0.34 6.46 0 0 Z " fill="#9E87C4" transform="translate(433,359)"/>
<path d="M0 0 C0.78503906 0.00386719 1.57007813 0.00773437 2.37890625 0.01171875 C4.4375 0.3125 4.4375 0.3125 6.4375 2.3125 C6.4375 3.3025 6.4375 4.2925 6.4375 5.3125 C5.6021875 4.8175 5.6021875 4.8175 4.75 4.3125 C2.13465478 3.1815399 0.2568354 3.15587026 -2.5625 3.3125 C-2.5625 4.6325 -2.5625 5.9525 -2.5625 7.3125 C-1.71365234 7.61994141 -1.71365234 7.61994141 -0.84765625 7.93359375 C-0.11417969 8.20300781 0.61929688 8.47242188 1.375 8.75 C2.10589844 9.01683594 2.83679688 9.28367187 3.58984375 9.55859375 C5.4375 10.3125 5.4375 10.3125 6.4375 11.3125 C6.75 13.6875 6.75 13.6875 6.4375 16.3125 C4.03433507 19.10017132 2.56374692 19.30142571 -1.125 19.625 C-4.5625 19.3125 -4.5625 19.3125 -7.5625 17.3125 C-7.5625 16.3225 -7.5625 15.3325 -7.5625 14.3125 C-6.9025 14.3125 -6.2425 14.3125 -5.5625 14.3125 C-5.2325 14.9725 -4.9025 15.6325 -4.5625 16.3125 C-1.9225 16.3125 0.7175 16.3125 3.4375 16.3125 C3.4375 14.9925 3.4375 13.6725 3.4375 12.3125 C2.81101563 12.19132812 2.18453125 12.07015625 1.5390625 11.9453125 C0.31316406 11.69394531 0.31316406 11.69394531 -0.9375 11.4375 C-1.74960938 11.27507812 -2.56171875 11.11265625 -3.3984375 10.9453125 C-5.5625 10.3125 -5.5625 10.3125 -7.5625 8.3125 C-7.92196086 5.50870529 -8.05749666 3.97040696 -6.328125 1.671875 C-4.08114433 -0.05810127 -2.80762643 -0.06013038 0 0 Z " fill="#A48ECB" transform="translate(165.5625,358.6875)"/>
<path d="M0 0 C4.62 0 9.24 0 14 0 C14 0.66 14 1.32 14 2 C10.37 2 6.74 2 3 2 C3 3.98 3 5.96 3 8 C5.97 8 8.94 8 12 8 C12 8.99 12 9.98 12 11 C8.7 11 5.4 11 2 11 C2 12.98 2 14.96 2 17 C5.3 17 8.6 17 12 17 C12 17.66 12 18.32 12 19 C7.71 19 3.42 19 -1 19 C-0.67 12.73 -0.34 6.46 0 0 Z " fill="#A38DCA" transform="translate(379,359)"/>
<path d="M0 0 C0.33 0 0.66 0 1 0 C2.10196725 4.43410632 2.1489566 8.77272341 2.125 13.3125 C2.12886719 14.03373047 2.13273437 14.75496094 2.13671875 15.49804688 C2.12790308 20.41278418 1.692757 25.13420677 1 30 C0.34 30 -0.32 30 -1 30 C-1.33 28.02 -1.66 26.04 -2 24 C-3.65 24.66 -5.3 25.32 -7 26 C-6.37609375 25.04996094 -5.7521875 24.09992188 -5.109375 23.12109375 C-2.53802265 18.62122714 -1.90716528 14.14586674 -1.25 9.0625 C-1.12496094 8.18787109 -0.99992187 7.31324219 -0.87109375 6.41210938 C-0.56768133 4.27655274 -0.28199864 2.13848965 0 0 Z " fill="#301446" transform="translate(361,309)"/>
<path d="M0 0 C0.33 0.66 0.66 1.32 1 2 C1.66 2 2.32 2 3 2 C2.3972149 11.40662007 1.32867987 20.67344131 0 30 C-0.99 30 -1.98 30 -3 30 C-2.19148936 9.46808511 -2.19148936 9.46808511 0 0 Z " fill="#2C0F44" transform="translate(256,309)"/>
<path d="M0 0 C1.32 0 2.64 0 4 0 C3.03644647 11.52164009 3.03644647 11.52164009 2 17 C5.63 17 9.26 17 13 17 C13 17.66 13 18.32 13 19 C8.38 19 3.76 19 -1 19 C-1.14285714 6.28571429 -1.14285714 6.28571429 0 0 Z " fill="#AD96D4" transform="translate(185,359)"/>
<path d="M0 0 C7.26 0 14.52 0 22 0 C22 2.31 22 4.62 22 7 C17.05 7 12.1 7 7 7 C7 6.67 7 6.34 7 6 C11.29 6 15.58 6 20 6 C20 4.68 20 3.36 20 2 C14.06 2 8.12 2 2 2 C1.87625 3.629375 1.7525 5.25875 1.625 6.9375 C1.4140625 9.71484375 1.4140625 9.71484375 1 12 C0.01 12.495 0.01 12.495 -1 13 C-1.07972012 8.2965127 -0.93491183 4.67455917 0 0 Z " fill="#C8C1CE" transform="translate(132,309)"/>
<path d="M0 0 C7.26 0 14.52 0 22 0 C22 2.31 22 4.62 22 7 C17.05 7 12.1 7 7 7 C7 6.67 7 6.34 7 6 C11.62 6 16.24 6 21 6 C21 4.68 21 3.36 21 2 C14.73 2 8.46 2 2 2 C1.87625 3.77375 1.7525 5.5475 1.625 7.375 C1.25 12.75 1.25 12.75 -1 15 C-1.09289153 9.70518291 -0.76541303 5.35789122 0 0 Z " fill="#C9C1CF" transform="translate(259,309)"/>
<path d="M0 0 C7.75 -0.125 7.75 -0.125 10 1 C10.625 3.5625 10.625 3.5625 11 6 C11.33 4.02 11.66 2.04 12 0 C12.33 0 12.66 0 13 0 C13 2.31 13 4.62 13 7 C9.87819599 7.96661363 7.47916205 7.98988909 4.25 7.5625 C3.05117188 7.40974609 3.05117188 7.40974609 1.828125 7.25390625 C1.22484375 7.17011719 0.6215625 7.08632813 0 7 C0 4.69 0 2.38 0 0 Z " fill="#43275F" transform="translate(408,361)"/>
<path d="M0 0 C2.64 0 5.28 0 8 0 C7.99476318 0.62567871 7.98952637 1.25135742 7.98413086 1.89599609 C7.96338382 4.72232057 7.95034714 7.54862905 7.9375 10.375 C7.92912109 11.35984375 7.92074219 12.3446875 7.91210938 13.359375 C7.90888672 14.30039062 7.90566406 15.24140625 7.90234375 16.2109375 C7.89710693 17.08024902 7.89187012 17.94956055 7.88647461 18.84521484 C7.85877649 21.05049994 7.85877649 21.05049994 9 23 C8.01 22.67 7.02 22.34 6 22 C5.87089147 15.25766581 6.202163 8.69613196 7 2 C5.35 2 3.7 2 2 2 C1.05711817 6.9600338 0.69751789 11.84514574 0.4375 16.875 C0.39431641 17.65875 0.35113281 18.4425 0.30664062 19.25 C0.20146649 21.16650649 0.10032075 23.08323333 0 25 C-2.60089088 21.09866368 -2.03865206 18.09558103 -1.6875 13.625 C-1.63916016 12.86960937 -1.59082031 12.11421875 -1.54101562 11.3359375 C-1.27497018 7.48333005 -0.87890441 3.77102574 0 0 Z " fill="#AA9FB4" transform="translate(333,309)"/>
<path d="M0 0 C4.95 0 9.9 0 15 0 C15 1.65 15 3.3 15 5 C10.05 5 5.1 5 0 5 C0 3.35 0 1.7 0 0 Z " fill="#EDEBF0" transform="translate(283,326)"/>
<path d="M0 0 C2.05078125 0.03255208 4.1015625 0.06510417 6.15234375 0.09765625 C6.03716954 2.45266573 5.91046397 4.80614698 5.77734375 7.16015625 C5.70773437 8.47113281 5.638125 9.78210938 5.56640625 11.1328125 C5.15428939 15.07902582 4.35477808 18.33882698 3.15234375 22.09765625 C2.82234375 22.09765625 2.49234375 22.09765625 2.15234375 22.09765625 C2.73894621 15.42037292 3.38815386 8.7570253 4.15234375 2.09765625 C2.50234375 2.09765625 0.85234375 2.09765625 -0.84765625 2.09765625 C-1.17765625 7.04765625 -1.50765625 11.99765625 -1.84765625 17.09765625 C-2.50765625 17.09765625 -3.16765625 17.09765625 -3.84765625 17.09765625 C-3.7074382 14.45141341 -3.56075849 11.80581047 -3.41015625 9.16015625 C-3.37083984 8.40541016 -3.33152344 7.65066406 -3.29101562 6.87304688 C-2.89927793 0.15323879 -2.89927793 0.15323879 0 0 Z " fill="#B6ACBE" transform="translate(354.84765625,308.90234375)"/>
<path d="M0 0 C3.0279691 3.40646524 3 4.0180495 3 9 C-0.63 9 -4.26 9 -8 9 C-8.33 10.65 -8.66 12.3 -9 14 C-10.32 14 -11.64 14 -13 14 C-12.34 12.02 -11.68 10.04 -11 8 C-10.34 8 -9.68 8 -9 8 C-8.34 6.35 -7.68 4.7 -7 3 C-6.34 3 -5.68 3 -5 3 C-5 4.32 -5 5.64 -5 7 C-3.35 7 -1.7 7 0 7 C0 4.69 0 2.38 0 0 Z " fill="#AE98D6" transform="translate(287,364)"/>
<path d="M0 0 C3.5625 0.375 3.5625 0.375 6.5 2.5 C8.87204571 5.80648796 9.02483492 7.3989197 8.5625 11.375 C7.9025 11.375 7.2425 11.375 6.5625 11.375 C6.294375 10.42625 6.02625 9.4775 5.75 8.5 C4.81263412 5.12232727 4.81263412 5.12232727 1.5625 3.375 C-0.85167872 2.79097867 -0.85167872 2.79097867 -3.4375 3.375 C-6.31324545 5.84947864 -8.33367347 8.2192602 -10.4375 11.375 C-10.80122697 7.13151873 -10.06084906 4.74787736 -7.4375 1.375 C-5.00681942 0.24646973 -2.68373665 0.29277127 0 0 Z " fill="#AA94D2" transform="translate(222.4375,358.625)"/>
<path d="M0 0 C2.97 0 5.94 0 9 0 C9.625 2.375 9.625 2.375 10 5 C8 7 8 7 6.0546875 7.1953125 C4.03645833 7.13020833 2.01822917 7.06510417 0 7 C0 4.69 0 2.38 0 0 Z " fill="#685478" transform="translate(481,316)"/>
<path d="M0 0 C2.64 0.66 5.28 1.32 8 2 C8 3.32 8 4.64 8 6 C5.29120665 7.35439668 2.99066732 7.06501451 0 7 C-0.33 6.01 -0.66 5.02 -1 4 C-1.66 4 -2.32 4 -3 4 C-2.67 5.32 -2.34 6.64 -2 8 C-2.66 8 -3.32 8 -4 8 C-4 6.02 -4 4.04 -4 2 C-2.68 2 -1.36 2 0 2 C0 1.34 0 0.68 0 0 Z " fill="#40235C" transform="translate(161,369)"/>
<path d="M0 0 C1.62418745 -0.08090971 3.24951745 -0.13914995 4.875 -0.1875 C5.77992188 -0.22230469 6.68484375 -0.25710938 7.6171875 -0.29296875 C8.79667969 -0.14794922 8.79667969 -0.14794922 10 0 C12.46934085 3.70401128 12.44928433 6.70587865 12 11 C11 13.5 11 13.5 10 15 C9.67 14.34 9.34 13.68 9 13 C8.67 14.65 8.34 16.3 8 18 C7.67 18 7.34 18 7 18 C7.33 12.39 7.66 6.78 8 1 C5.69 1 3.38 1 1 1 C1 3.31 1 5.62 1 8 C0.67 8 0.34 8 0 8 C0 5.36 0 2.72 0 0 Z " fill="#675278" transform="translate(503,309)"/>
<path d="M0 0 C3.14624993 -0.26218749 4.61837017 -0.24754367 7.3125 1.5 C8.1478125 2.2425 8.1478125 2.2425 9 3 C9.33 2.01 9.66 1.02 10 0 C10.33 1.32 10.66 2.64 11 4 C9.68 4.33 8.36 4.66 7 5 C7.33 5.99 7.66 6.98 8 8 C5.03 7.01 2.06 6.02 -1 5 C-0.67 3.35 -0.34 1.7 0 0 Z " fill="#3B1F56" transform="translate(163,361)"/>
<path d="M0 0 C1.5625 1.625 1.5625 1.625 1.5625 3.625 C1.046875 3.480625 0.53125 3.33625 0 3.1875 C-0.804375 3.001875 -1.60875 2.81625 -2.4375 2.625 C-3.5925 2.356875 -4.7475 2.08875 -5.9375 1.8125 C-9.41794553 1.27306524 -9.41794553 1.27306524 -11.75 3.1875 C-13.63922435 5.91637962 -14.56717853 8.43382127 -15.4375 11.625 C-15.7675 11.625 -16.0975 11.625 -16.4375 11.625 C-16.72808436 6.6850659 -16.65070034 3.52674327 -13.4375 -0.375 C-9.31183815 -2.29048586 -3.91888568 -2.21065346 0 0 Z " fill="#A48ECB" transform="translate(260.4375,360.375)"/>
<path d="M0 0 C2.3828125 -0.29296875 2.3828125 -0.29296875 5.125 -0.1875 C6.03507812 -0.16042969 6.94515625 -0.13335937 7.8828125 -0.10546875 C8.58148438 -0.07066406 9.28015625 -0.03585937 10 0 C10 0.33 10 0.66 10 1 C7.03 1 4.06 1 1 1 C1 3.31 1 5.62 1 8 C4.3 8 7.6 8 11 8 C11 8.66 11 9.32 11 10 C6.71 10 2.42 10 -2 10 C-2.25 3.375 -2.25 3.375 0 0 Z " fill="#AD97D4" transform="translate(434,368)"/>
<path d="M0 0 C0.33 0 0.66 0 1 0 C1 5.94 1 11.88 1 18 C3.31 18 5.62 18 8 18 C8 18.33 8 18.66 8 19 C0.25 19.125 0.25 19.125 -2 18 C-2.054348 15.9377952 -2.09294961 13.87517184 -2.125 11.8125 C-2.14820313 10.66394531 -2.17140625 9.51539063 -2.1953125 8.33203125 C-2.00484152 5.08259628 -1.39360127 2.91339479 0 0 Z " fill="#432958" transform="translate(398,321)"/>
<path d="M0 0 C2.31 0.33 4.62 0.66 7 1 C7 1.66 7 2.32 7 3 C8.98 2.67 10.96 2.34 13 2 C12.01 3.485 12.01 3.485 11 5 C11.66 6.32 12.32 7.64 13 9 C12.175 8.54625 11.35 8.0925 10.5 7.625 C6.64875632 5.83692258 3.13277201 4.92631097 -1 4 C-0.67 2.68 -0.34 1.36 0 0 Z " fill="#553D67" transform="translate(313,316)"/>
<path d="M0 0 C5.445 1.485 5.445 1.485 11 3 C11.33 4.32 11.66 5.64 12 7 C6.31906353 7.11139091 1.46249264 6.41620179 -4 5 C-2.35 4.34 -0.7 3.68 1 3 C0.67 2.01 0.34 1.02 0 0 Z " fill="#3E2354" transform="translate(160,325)"/>
<path d="M0 0 C1.65 0.33 3.3 0.66 5 1 C5.25 3.3125 5.25 3.3125 5 6 C2.59683507 8.78767132 1.12624692 8.98892571 -2.5625 9.3125 C-6 9 -6 9 -9 7 C-9 6.01 -9 5.02 -9 4 C-8.34 4 -7.68 4 -7 4 C-6.67 4.66 -6.34 5.32 -6 6 C-3.36 6 -0.72 6 2 6 C2 4.68 2 3.36 2 2 C1.34 2 0.68 2 0 2 C0 1.34 0 0.68 0 0 Z " fill="#A58ECC" transform="translate(167,369)"/>
<path d="M0 0 C0.66 0.33 1.32 0.66 2 1 C1.67 2.65 1.34 4.3 1 6 C-1.31 6.33 -3.62 6.66 -6 7 C-6 7.66 -6 8.32 -6 9 C-11.75 8.125 -11.75 8.125 -14 7 C-14 6.01 -14 5.02 -14 4 C-10.10745958 3.92514345 -6.75892143 4.06026964 -3 5 C-2.01 4.67 -1.02 4.34 0 4 C0 2.68 0 1.36 0 0 Z " fill="#654F76" transform="translate(180,313)"/>
<path d="M0 0 C0.66 0.33 1.32 0.66 2 1 C0.90344712 2.31886772 -0.20253423 3.62990057 -1.3125 4.9375 C-1.92738281 5.66839844 -2.54226562 6.39929688 -3.17578125 7.15234375 C-5 9 -5 9 -8 10 C-8 13.96 -8 17.92 -8 22 C-8.33 22 -8.66 22 -9 22 C-9.91382452 10.7464202 -9.91382452 10.7464202 -7.76953125 6.6484375 C-5.39375965 3.89136923 -3.03673624 2.02449083 0 0 Z " fill="#C0B8C7" transform="translate(194,310)"/>
<path d="M0 0 C3.3 0 6.6 0 10 0 C9.67 2.97 9.34 5.94 9 9 C8.34 9 7.68 9 7 9 C7 8.34 7 7.68 7 7 C6.34 6.67 5.68 6.34 5 6 C5.33 4.68 5.66 3.36 6 2 C4.02 2 2.04 2 0 2 C0 1.34 0 0.68 0 0 Z " fill="#A28BC9" transform="translate(253,368)"/>
<path d="M0 0 C0.33 0 0.66 0 1 0 C0.67 5.28 0.34 10.56 0 16 C-0.66 16 -1.32 16 -2 16 C-2.33 14.02 -2.66 12.04 -3 10 C-4.65 10.66 -6.3 11.32 -8 12 C-7.38125 10.9275 -6.7625 9.855 -6.125 8.75 C-4.6676321 6.20219016 -3.27075509 3.64740645 -2 1 C-2.33 3.31 -2.66 5.62 -3 8 C-2.34 7.67 -1.68 7.34 -1 7 C-0.59270772 4.67843403 -0.25561323 2.3431213 0 0 Z " fill="#655076" transform="translate(362,323)"/>
<path d="M0 0 C1.23556641 0.01740234 1.23556641 0.01740234 2.49609375 0.03515625 C3.32238281 0.04417969 4.14867187 0.05320312 5 0.0625 C5.63808594 0.07410156 6.27617187 0.08570313 6.93359375 0.09765625 C7.01013911 4.61383224 7.03588071 8.68850842 5.93359375 13.09765625 C5.60359375 13.09765625 5.27359375 13.09765625 4.93359375 13.09765625 C4.93359375 9.46765625 4.93359375 5.83765625 4.93359375 2.09765625 C2.62359375 2.09765625 0.31359375 2.09765625 -2.06640625 2.09765625 C-2.06640625 3.08765625 -2.06640625 4.07765625 -2.06640625 5.09765625 C-3.05640625 5.42765625 -4.04640625 5.75765625 -5.06640625 6.09765625 C-2.77153066 0.13097971 -2.77153066 0.13097971 0 0 Z " fill="#BDB4C4" transform="translate(429.06640625,308.90234375)"/>
<path d="M0 0 C-7.10392163 4.97458078 -13.42782385 5.85425976 -22 6 C-18.67091833 3.78061222 -15.31854136 2.57651775 -11.5625 1.3125 C-10.89412109 1.07466797 -10.22574219 0.83683594 -9.53710938 0.59179688 C-3.4625144 -1.46116337 -3.4625144 -1.46116337 0 0 Z " fill="#866DB1" transform="translate(274,166)"/>
<path d="M0 0 C0.33 0 0.66 0 1 0 C1 3.96 1 7.92 1 12 C1.33 12 1.66 12 2 12 C2 14.31 2 16.62 2 19 C0.68 19 -0.64 19 -2 19 C-2.24794402 12.4294834 -1.32388229 6.43028541 0 0 Z " fill="#826AA5" transform="translate(405,359)"/>
<path d="M0 0 C0 1.98 0 3.96 0 6 C3.3 6 6.6 6 10 6 C10 6.66 10 7.32 10 8 C5.71 8 1.42 8 -3 8 C-3 5.69 -3 3.38 -3 1 C-1 0 -1 0 0 0 Z " fill="#A993D0" transform="translate(381,370)"/>
<path d="M0 0 C1.21236328 0.01353516 1.21236328 0.01353516 2.44921875 0.02734375 C3.37154297 0.04474609 3.37154297 0.04474609 4.3125 0.0625 C4.3125 0.3925 4.3125 0.7225 4.3125 1.0625 C3.64863281 1.14886719 2.98476563 1.23523438 2.30078125 1.32421875 C-2.12643983 2.02869627 -5.08561704 2.62030027 -8.75 5.3125 C-10.88075559 8.33679826 -11.43212431 10.40211507 -11.6875 14.0625 C-12.0175 14.0625 -12.3475 14.0625 -12.6875 14.0625 C-12.98104834 11.00959731 -13.11782367 8.10625276 -12.6875 5.0625 C-8.92078 0.99037027 -5.41639611 -0.07849849 0 0 Z " fill="#C7BFCD" transform="translate(553.6875,308.9375)"/>
<path d="M0 0 C2.98479194 4.47718792 4 8.63824093 4 14 C2.68 13.67 1.36 13.34 0 13 C0 12.01 0 11.02 0 10 C-3.3 10 -6.6 10 -10 10 C-10 9.67 -10 9.34 -10 9 C-6.37 9 -2.74 9 1 9 C0.67 6.03 0.34 3.06 0 0 Z " fill="#8A72AE" transform="translate(289,364)"/>
<path d="M0 0 C0.33 0 0.66 0 1 0 C1 4.62 1 9.24 1 14 C1.99 13.67 2.98 13.34 4 13 C3.67 14.32 3.34 15.64 3 17 C5.97 16.67 8.94 16.34 12 16 C12 16.66 12 17.32 12 18 C8.37 18 4.74 18 1 18 C1 17.34 1 16.68 1 16 C0.34 16 -0.32 16 -1 16 C-1.09688221 10.55306686 -1.12862175 5.36095333 0 0 Z " fill="#5F4971" transform="translate(434,322)"/>
<path d="M0 0 C4.95 0.99 4.95 0.99 10 2 C10 3.32 10 4.64 10 6 C6.29706315 6.33663062 4.60465619 6.47736015 1.625 4.125 C0 2 0 2 0 0 Z " fill="#3A1E50" transform="translate(545,326)"/>
<path d="M0 0 C4.95 0.99 4.95 0.99 10 2 C10 3.32 10 4.64 10 6 C6.29706315 6.33663062 4.60465619 6.47736015 1.625 4.125 C0 2 0 2 0 0 Z " fill="#412657" transform="translate(308,326)"/>
<path d="M0 0 C0 0.99 0 1.98 0 3 C0.43693848 4.49218614 0.920664 5.97107057 1.4375 7.4375 C2.43097472 10.27394232 3.31328396 13.0731229 4 16 C0.83884224 14.63016497 0.0072908 14.0109362 -2 11 C-2.265625 8.80859375 -2.265625 8.80859375 -2.25 6.4375 C-2.25515625 5.65246094 -2.2603125 4.86742187 -2.265625 4.05859375 C-2 2 -2 2 0 0 Z " fill="#9982BF" transform="translate(213,362)"/>
<path d="M0 0 C0.33 0 0.66 0 1 0 C1.144375 1.2375 1.28875 2.475 1.4375 3.75 C1.70367123 5.95266335 1.98098821 7.93726109 2.625 10.0625 C3.21781173 13.12536062 2.52654563 15.95773634 2 19 C1.01 19 0.02 19 -1 19 C-0.67 12.73 -0.34 6.46 0 0 Z " fill="#3E2354" transform="translate(254,320)"/>
<path d="M0 0 C0.99 0 1.98 0 3 0 C3 4.95 3 9.9 3 15 C2.67 15 2.34 15 2 15 C1.67 12.69 1.34 10.38 1 8 C0.67 9.98 0.34 11.96 0 14 C-0.99 14 -1.98 14 -3 14 C-2.690625 12.80375 -2.38125 11.6075 -2.0625 10.375 C-1.19968427 6.93597561 -0.52629514 3.50863427 0 0 Z " fill="#8870AB" transform="translate(320,359)"/>
<path d="M0 0 C0.66 0 1.32 0 2 0 C2 2.97 2 5.94 2 9 C4.31 9 6.62 9 9 9 C9 9.33 9 9.66 9 10 C6.36 10 3.72 10 1 10 C0.67 9.01 0.34 8.02 0 7 C-1.98 7.99 -1.98 7.99 -4 9 C-2.68 6.03 -1.36 3.06 0 0 Z " fill="#5E4770" transform="translate(243,330)"/>
<path d="M0 0 C2.3125 1.5625 2.3125 1.5625 4 3 C3.67 3.66 3.34 4.32 3 5 C-0.3 4.34 -3.6 3.68 -7 3 C-7 2.01 -7 1.02 -7 0 C-4.25700998 -1.37149501 -2.91518346 -0.83290956 0 0 Z " fill="#503764" transform="translate(556,317)"/>
<path d="M0 0 C1.32 0 2.64 0 4 0 C3.67 3.63 3.34 7.26 3 11 C2.34 10.01 1.68 9.02 1 8 C0.67 10.31 0.34 12.62 0 15 C-0.33 15 -0.66 15 -1 15 C-1.09038099 9.84828377 -0.84681133 5.08086796 0 0 Z " fill="#8971AD" transform="translate(185,359)"/>
<path d="M0 0 C0.79921875 0.00902344 1.5984375 0.01804688 2.421875 0.02734375 C3.02515625 0.03894531 3.6284375 0.05054688 4.25 0.0625 C4.25 1.39583333 4.25 2.72916667 4.25 4.0625 C-0.04 3.7325 -4.33 3.4025 -8.75 3.0625 C-8.75 2.4025 -8.75 1.7425 -8.75 1.0625 C-5.75519083 0.1901588 -3.11424089 -0.04579766 0 0 Z " fill="#432662" transform="translate(252.75,171.9375)"/>
<path d="M0 0 C1.27182008 2.54364016 0.82067275 3.24463053 0.00390625 5.9140625 C-0.33930664 7.05488281 -0.33930664 7.05488281 -0.68945312 8.21875 C-0.93630859 9.0128125 -1.18316406 9.806875 -1.4375 10.625 C-1.68048828 11.42679688 -1.92347656 12.22859375 -2.17382812 13.0546875 C-2.77604073 15.03844668 -3.38718689 17.01948982 -4 19 C-4.33 19 -4.66 19 -5 19 C-5.44753529 11.95131923 -4.43902141 7.18747628 -1 1 C-0.67 0.67 -0.34 0.34 0 0 Z " fill="#B56159" transform="translate(328,130)"/>
<path d="M0 0 C2.475 0.495 2.475 0.495 5 1 C5 1.99 5 2.98 5 4 C4.01 4 3.02 4 2 4 C1.67 6.97 1.34 9.94 1 13 C0.67 13 0.34 13 0 13 C0 8.71 0 4.42 0 0 Z " fill="#B29CDB" transform="translate(307,359)"/>
<path d="M0 0 C0.66 0 1.32 0 2 0 C2 2.97 2 5.94 2 9 C4.31 9 6.62 9 9 9 C9 9.33 9 9.66 9 10 C1.62957075 10.36248013 1.62957075 10.36248013 -1.0625 8.8125 C-2.39826326 6.23002437 -1.83707827 4.72050437 -1 2 C-0.67 1.34 -0.34 0.68 0 0 Z " fill="#5E4871" transform="translate(386,330)"/>
<path d="M0 0 C2.97 0 5.94 0 9 0 C9.33 1.65 9.66 3.3 10 5 C9.34 4.34 8.68 3.68 8 3 C5.67724823 2.59952556 3.34260643 2.2602896 1 2 C0.67 4.64 0.34 7.28 0 10 C-0.33 10 -0.66 10 -1 10 C-1.125 2.25 -1.125 2.25 0 0 Z " fill="#BAB0C2" transform="translate(402,309)"/>
<path d="M0 0 C2.64 0 5.28 0 8 0 C11.125 6.5 11.125 6.5 10 11 C9.34 8.03 8.68 5.06 8 2 C6.02 2 4.04 2 2 2 C1.67 3.32 1.34 4.64 1 6 C0.67 4.02 0.34 2.04 0 0 Z " fill="#BFB6C6" transform="translate(97,309)"/>
<path d="M0 0 C0 0.99 0 1.98 0 3 C0.23197887 4.50649809 0.50639376 6.00679885 0.8125 7.5 C0.96332031 8.2734375 1.11414063 9.046875 1.26953125 9.84375 C2.0872127 12.2574407 3.08269886 13.36110149 5 15 C2.625 14.6875 2.625 14.6875 0 14 C-2.08940868 10.86588698 -2.27364412 10.02549528 -2.25 6.4375 C-2.25515625 5.65246094 -2.2603125 4.86742187 -2.265625 4.05859375 C-2 2 -2 2 0 0 Z " fill="#9A83C0" transform="translate(245,362)"/>
<path d="M0 0 C0.66 0 1.32 0 2 0 C3.25664978 2.90600261 4 4.79604584 4 8 C7.3 7.67 10.6 7.34 14 7 C14 7.66 14 8.32 14 9 C10.37 9 6.74 9 3 9 C2.67 8.34 2.34 7.68 2 7 C1.01 7.495 1.01 7.495 0 8 C0 5.36 0 2.72 0 0 Z " fill="#4A315F" transform="translate(407,331)"/>
<path d="M0 0 C2.64 0 5.28 0 8 0 C8 1.32 8 2.64 8 4 C5.36 4 2.72 4 0 4 C0 2.68 0 1.36 0 0 Z " fill="#2F1346" transform="translate(483,317)"/>
<path d="M0 0 C0 0.33 0 0.66 0 1 C-1.6396875 1.4021875 -1.6396875 1.4021875 -3.3125 1.8125 C-7.4028906 3.00905129 -7.4028906 3.00905129 -10 6 C-10.7269226 9.10839021 -10.7269226 9.10839021 -11 12 C-11.33 12 -11.66 12 -12 12 C-12.35294118 4.94117647 -12.35294118 4.94117647 -11.0625 1.5 C-7.70049852 -0.94509198 -4.01756473 -0.30321243 0 0 Z " fill="#513964" transform="translate(84,317)"/>
<path d="M0 0 C0.66 0 1.32 0 2 0 C1.875 2.25 1.875 2.25 1 5 C-2.0625 7.3125 -2.0625 7.3125 -5 9 C-5.66 8.67 -6.32 8.34 -7 8 C-5.88200014 6.66079162 -4.75538103 5.32877444 -3.625 4 C-2.68527344 2.88625 -2.68527344 2.88625 -1.7265625 1.75 C-1.15679687 1.1725 -0.58703125 0.595 0 0 Z " fill="#DBC05A" transform="translate(288,163)"/>
<path d="M0 0 C0.66 0.33 1.32 0.66 2 1 C-1.3 4.3 -4.6 7.6 -8 11 C-8.99 10.67 -9.98 10.34 -11 10 C-7.50640535 6.40365256 -3.88901869 3.16548033 0 0 Z " fill="#533142" transform="translate(292,176)"/>
<path d="M0 0 C0.33 0 0.66 0 1 0 C1.02703381 1.93742341 1.04641125 3.87495479 1.0625 5.8125 C1.07410156 6.89144531 1.08570313 7.97039062 1.09765625 9.08203125 C1 12 1 12 0 15 C-0.99 15 -1.98 15 -3 15 C-2.01 10.05 -1.02 5.1 0 0 Z " fill="#BDA9E7" transform="translate(321,362)"/>
<path d="M0 0 C1.98 0.495 1.98 0.495 4 1 C4.33 2.32 4.66 3.64 5 5 C4.34 5 3.68 5 3 5 C1.61767557 6.62626404 0.28062485 8.2925002 -1 10 C-0.67 6.7 -0.34 3.4 0 0 Z " fill="#624C73" transform="translate(480,329)"/>
<path d="M0 0 C0.99 0 1.98 0 3 0 C3.33 2.64 3.66 5.28 4 8 C3.67 7.01 3.34 6.02 3 5 C2.34 5 1.68 5 1 5 C1 7.64 1 10.28 1 13 C0.67 13 0.34 13 0 13 C0 8.71 0 4.42 0 0 Z " fill="#B8AEC0" transform="translate(406,326)"/>
<path d="M0 0 C0.66 0 1.32 0 2 0 C2.33 2.31 2.66 4.62 3 7 C1.35 7 -0.3 7 -2 7 C-1.125 2.25 -1.125 2.25 0 0 Z " fill="#41245E" transform="translate(284,364)"/>
<path d="M0 0 C0.33 0.99 0.66 1.98 1 3 C3.64 3 6.28 3 9 3 C7.68 3.33 6.36 3.66 5 4 C5 4.66 5 5.32 5 6 C3.02 6 1.04 6 -1 6 C-0.67 4.02 -0.34 2.04 0 0 Z " fill="#6F5692" transform="translate(239,169)"/>
<path d="M0 0 C3.375 -0.125 3.375 -0.125 7 0 C9 2 9 2 9 5 C8.46375 4.690625 7.9275 4.38125 7.375 4.0625 C4.6015043 2.82172561 1.99957163 2.4090325 -1 2 C-0.67 1.34 -0.34 0.68 0 0 Z " fill="#A993D0" transform="translate(163,359)"/>
<path d="M0 0 C0.66 0 1.32 0 2 0 C2.33 0.66 2.66 1.32 3 2 C4.89533342 2.46523063 4.89533342 2.46523063 7.0625 2.625 C8.361875 2.74875 9.66125 2.8725 11 3 C10.67 3.66 10.34 4.32 10 5 C3.375 5.25 3.375 5.25 0 3 C0 2.01 0 1.02 0 0 Z " fill="#AE99D6" transform="translate(158,373)"/>
<path d="M0 0 C2.64 0 5.28 0 8 0 C7.67 1.65 7.34 3.3 7 5 C6.67 4.01 6.34 3.02 6 2 C3.36 2.66 0.72 3.32 -2 4 C-1.34 2.68 -0.68 1.36 0 0 Z " fill="#B7AEBF" transform="translate(120,309)"/>
<path d="M0 0 C0.99 0.99 1.98 1.98 3 3 C2.67 3.66 2.34 4.32 2 5 C1.67 4.67 1.34 4.34 1 4 C-0.32 5.65 -1.64 7.3 -3 9 C-3 6.36 -3 3.72 -3 1 C-2.01 0.67 -1.02 0.34 0 0 Z " fill="#8168A4" transform="translate(312,362)"/>
<path d="M0 0 C-1.15173355 2.46800047 -2.04783565 4.04783565 -4 6 C-4.39764263 7.98821313 -4.73775349 9.98944339 -5 12 C-5.33 12 -5.66 12 -6 12 C-6.48979592 4.65306122 -6.48979592 4.65306122 -4.125 1.5 C-2 0 -2 0 0 0 Z " fill="#563F69" transform="translate(199,317)"/>
<path d="M0 0 C0.66 0.33 1.32 0.66 2 1 C1.07038578 2.15224028 0.1309875 3.29659176 -0.8125 4.4375 C-1.59560547 5.39462891 -1.59560547 5.39462891 -2.39453125 6.37109375 C-4 8 -4 8 -7 9 C-5.44499019 5.18315774 -2.96404505 2.80804268 0 0 Z " fill="#9780BD" transform="translate(265,102)"/>
<path d="M0 0 C0.66 0.33 1.32 0.66 2 1 C2.59355614 3.64860427 2.74209269 6.29197322 3 9 C1.68 8.34 0.36 7.68 -1 7 C-1.04254356 5.00045254 -1.04080783 2.99958364 -1 1 C-0.67 0.67 -0.34 0.34 0 0 Z " fill="#7C698B" transform="translate(370,328)"/>
<path d="M0 0 C2.31 0.66 4.62 1.32 7 2 C6.01 2.33 5.02 2.66 4 3 C3.67 3.99 3.34 4.98 3 6 C0.69 6 -1.62 6 -4 6 C-3.01 5.34 -2.02 4.68 -1 4 C-0.34 3.34 0.32 2.68 1 2 C0.67 1.34 0.34 0.68 0 0 Z " fill="#816F8F" transform="translate(160,325)"/>
<path d="M0 0 C0.66 0.33 1.32 0.66 2 1 C0.71937515 2.7074998 -0.61767557 4.37373596 -2 6 C-2.66 6 -3.32 6 -4 6 C-4 7.98 -4 9.96 -4 12 C-4.33 12 -4.66 12 -5 12 C-5.3125 8.8125 -5.3125 8.8125 -5 5 C-2.5 2.0625 -2.5 2.0625 0 0 Z " fill="#CAC2D0" transform="translate(309,310)"/>
<path d="M0 0 C0.66 0 1.32 0 2 0 C1.67 3.3 1.34 6.6 1 10 C0.67 10 0.34 10 0 10 C0 8.35 0 6.7 0 5 C-0.66 5 -1.32 5 -2 5 C-1.34 3.35 -0.68 1.7 0 0 Z " fill="#746083" transform="translate(424,329)"/>
<path d="M0 0 C0.33 0.66 0.66 1.32 1 2 C1.66 2 2.32 2 3 2 C3 3.65 3 5.3 3 7 C2.34 6.67 1.68 6.34 1 6 C0.67 7.65 0.34 9.3 0 11 C-0.33 11 -0.66 11 -1 11 C-1.14285714 3.57142857 -1.14285714 3.57142857 0 0 Z " fill="#432858" transform="translate(256,309)"/>
<path d="M0 0 C1.65 0 3.3 0 5 0 C5.66 1.65 6.32 3.3 7 5 C6.34 5 5.68 5 5 5 C4.67 4.34 4.34 3.68 4 3 C3.01 2.67 2.02 2.34 1 2 C0.67 2.99 0.34 3.98 0 5 C0 3.35 0 1.7 0 0 Z " fill="#4D306A" transform="translate(407,370)"/>
<path d="M0 0 C0.66 0 1.32 0 2 0 C3 3 3 3 2 6 C0.68 6 -0.64 6 -2 6 C-1.34 4.02 -0.68 2.04 0 0 Z " fill="#9780BD" transform="translate(276,372)"/>
<path d="M0 0 C2.31 0.33 4.62 0.66 7 1 C6 3 6 3 4 4 C1.875 3.5625 1.875 3.5625 0 3 C0 2.01 0 1.02 0 0 Z " fill="#49305E" transform="translate(313,316)"/>
<path d="M0 0 C1.98 0 3.96 0 6 0 C6.33 0.99 6.66 1.98 7 3 C4.69 3 2.38 3 0 3 C0 2.01 0 1.02 0 0 Z " fill="#361A4D" transform="translate(166,317)"/>
<path d="M0 0 C0.33 0 0.66 0 1 0 C1 2.64 1 5.28 1 8 C0.34 8 -0.32 8 -1 8 C-1 7.34 -1 6.68 -1 6 C-1.66 5.67 -2.32 5.34 -3 5 C-2.03114628 3.31503702 -1.03013277 1.64821244 0 0 Z " fill="#C0ACEA" transform="translate(261,369)"/>
<path d="M0 0 C0.99 0.33 1.98 0.66 3 1 C2.54625 1.7425 2.0925 2.485 1.625 3.25 C0.31359204 5.46930578 -0.88280803 7.67967822 -2 10 C-2.25 3.375 -2.25 3.375 0 0 Z " fill="#B5A0DE" transform="translate(246,362)"/>
<path d="M0 0 C0.66 0.33 1.32 0.66 2 1 C1.67 2.98 1.34 4.96 1 7 C0.34 6.01 -0.32 5.02 -1 4 C-1.66 5.32 -2.32 6.64 -3 8 C-3.36923077 3.44615385 -3.36923077 3.44615385 -1.5 1.1875 C-1.005 0.795625 -0.51 0.40375 0 0 Z " fill="#846CA7" transform="translate(161,359)"/>
<path d="M0 0 C0.66 0.33 1.32 0.66 2 1 C2 2.65 2 4.3 2 6 C0.68 5.34 -0.64 4.68 -2 4 C-1.34 2.68 -0.68 1.36 0 0 Z " fill="#9B84C1" transform="translate(416,372)"/>
<path d="M0 0 C0.66 0 1.32 0 2 0 C1.67 1.98 1.34 3.96 1 6 C0.01 6.33 -0.98 6.66 -2 7 C-1.125 1.125 -1.125 1.125 0 0 Z " fill="#B8A4E2" transform="translate(280,367)"/>
<path d="M0 0 C4.95 0.99 4.95 0.99 10 2 C10 2.33 10 2.66 10 3 C3.9453125 3.9765625 3.9453125 3.9765625 2 4 C1.34 3.34 0.68 2.68 0 2 C0 1.34 0 0.68 0 0 Z " fill="#523A66" transform="translate(545,326)"/>
<path d="M0 0 C2.64 0.33 5.28 0.66 8 1 C7.67 1.99 7.34 2.98 7 4 C5.35 3.67 3.7 3.34 2 3 C2 2.34 2 1.68 2 1 C1.34 0.67 0.68 0.34 0 0 Z " fill="#402555" transform="translate(552,318)"/>
<path d="M0 0 C0.66 0.33 1.32 0.66 2 1 C1.01 2.32 0.02 3.64 -1 5 C-0.34 5.66 0.32 6.32 1 7 C-0.32 7.33 -1.64 7.66 -3 8 C-2.25 2.25 -2.25 2.25 0 0 Z " fill="#DD9866" transform="translate(283,215)"/>
</svg>
